<mxfile host="app.diagrams.net" modified="2023-01-11T04:18:10.732Z" agent="5.0 (Windows NT 10.0; Win64; x64) AppleWebKit/537.36 (KHTML, like Gecko) Chrome/108.0.0.0 Safari/537.36 Edg/108.0.1462.76" etag="Dn8Y3AKJW7-EC1h_c3Mr" version="20.8.3" type="github">
  <diagram name="Page-1" id="8ce9d11a-91a2-4d17-14d8-a56ed91bf033">
    <mxGraphModel dx="1193" dy="697" grid="1" gridSize="10" guides="1" tooltips="1" connect="1" arrows="1" fold="1" page="1" pageScale="1" pageWidth="1100" pageHeight="850" background="none" math="0" shadow="0">
      <root>
        <mxCell id="0" />
        <mxCell id="1" parent="0" />
        <mxCell id="17ea667e15c223fc-28" style="edgeStyle=orthogonalEdgeStyle;rounded=1;html=1;labelBackgroundColor=none;startArrow=none;startFill=0;startSize=5;endArrow=classicThin;endFill=1;endSize=5;jettySize=auto;orthogonalLoop=1;strokeWidth=1;fontFamily=Verdana;fontSize=8" parent="1" source="17ea667e15c223fc-1" target="17ea667e15c223fc-2" edge="1">
          <mxGeometry relative="1" as="geometry" />
        </mxCell>
        <mxCell id="17ea667e15c223fc-1" value="initial&amp;nbsp;" style="shape=hexagon;perimeter=hexagonPerimeter;whiteSpace=wrap;html=1;rounded=0;shadow=0;labelBackgroundColor=none;strokeWidth=1;fontFamily=Verdana;fontSize=12;align=center;" parent="1" vertex="1">
          <mxGeometry x="25" y="30" width="120" height="80" as="geometry" />
        </mxCell>
        <mxCell id="yy2sZE4itZw_RQWSuxx_-3" value="" style="edgeStyle=orthogonalEdgeStyle;rounded=0;orthogonalLoop=1;jettySize=auto;html=1;" edge="1" parent="1" source="17ea667e15c223fc-2" target="yy2sZE4itZw_RQWSuxx_-2">
          <mxGeometry relative="1" as="geometry" />
        </mxCell>
        <mxCell id="17ea667e15c223fc-2" value="binding tag ID with item info&lt;br&gt;" style="rounded=1;whiteSpace=wrap;html=1;shadow=0;labelBackgroundColor=none;strokeWidth=1;fontFamily=Verdana;fontSize=12;align=center;" parent="1" vertex="1">
          <mxGeometry x="181" y="30" width="120" height="80" as="geometry" />
        </mxCell>
        <mxCell id="17ea667e15c223fc-52" style="edgeStyle=orthogonalEdgeStyle;rounded=1;html=1;labelBackgroundColor=none;startArrow=none;startFill=0;startSize=5;endArrow=classicThin;endFill=1;endSize=5;jettySize=auto;orthogonalLoop=1;strokeWidth=1;fontFamily=Verdana;fontSize=8" parent="1" target="17ea667e15c223fc-26" edge="1">
          <mxGeometry relative="1" as="geometry">
            <mxPoint x="870" y="600" as="sourcePoint" />
          </mxGeometry>
        </mxCell>
        <mxCell id="17ea667e15c223fc-26" value="End" style="shape=hexagon;perimeter=hexagonPerimeter;whiteSpace=wrap;html=1;rounded=0;shadow=0;labelBackgroundColor=none;strokeWidth=1;fontFamily=Verdana;fontSize=12;align=center;" parent="1" vertex="1">
          <mxGeometry x="810" y="670" width="120" height="80" as="geometry" />
        </mxCell>
        <mxCell id="yy2sZE4itZw_RQWSuxx_-5" value="" style="edgeStyle=orthogonalEdgeStyle;rounded=0;orthogonalLoop=1;jettySize=auto;html=1;" edge="1" parent="1" source="yy2sZE4itZw_RQWSuxx_-2" target="yy2sZE4itZw_RQWSuxx_-4">
          <mxGeometry relative="1" as="geometry" />
        </mxCell>
        <mxCell id="yy2sZE4itZw_RQWSuxx_-2" value="send OTP to tag for verification" style="rounded=1;whiteSpace=wrap;html=1;shadow=0;labelBackgroundColor=none;strokeWidth=1;fontFamily=Verdana;fontSize=12;align=center;" vertex="1" parent="1">
          <mxGeometry x="342" y="30" width="120" height="80" as="geometry" />
        </mxCell>
        <mxCell id="yy2sZE4itZw_RQWSuxx_-7" value="" style="edgeStyle=orthogonalEdgeStyle;rounded=0;orthogonalLoop=1;jettySize=auto;html=1;" edge="1" parent="1" source="yy2sZE4itZw_RQWSuxx_-4" target="yy2sZE4itZw_RQWSuxx_-6">
          <mxGeometry relative="1" as="geometry" />
        </mxCell>
        <mxCell id="yy2sZE4itZw_RQWSuxx_-4" value="input OTP" style="whiteSpace=wrap;html=1;fontFamily=Verdana;rounded=1;shadow=0;labelBackgroundColor=none;strokeWidth=1;" vertex="1" parent="1">
          <mxGeometry x="507" y="40" width="120" height="60" as="geometry" />
        </mxCell>
        <mxCell id="yy2sZE4itZw_RQWSuxx_-8" style="edgeStyle=orthogonalEdgeStyle;rounded=0;orthogonalLoop=1;jettySize=auto;html=1;entryX=0.5;entryY=1;entryDx=0;entryDy=0;" edge="1" parent="1" source="yy2sZE4itZw_RQWSuxx_-6" target="17ea667e15c223fc-2">
          <mxGeometry relative="1" as="geometry">
            <Array as="points">
              <mxPoint x="710" y="180" />
              <mxPoint x="241" y="180" />
            </Array>
          </mxGeometry>
        </mxCell>
        <mxCell id="yy2sZE4itZw_RQWSuxx_-12" value="" style="edgeStyle=orthogonalEdgeStyle;rounded=0;orthogonalLoop=1;jettySize=auto;html=1;" edge="1" parent="1">
          <mxGeometry relative="1" as="geometry">
            <mxPoint x="721.0000000000002" y="70" as="sourcePoint" />
            <mxPoint x="840" y="70" as="targetPoint" />
          </mxGeometry>
        </mxCell>
        <mxCell id="yy2sZE4itZw_RQWSuxx_-6" value="match OPT" style="rhombus;whiteSpace=wrap;html=1;fontFamily=Verdana;rounded=1;shadow=0;labelBackgroundColor=none;strokeWidth=1;" vertex="1" parent="1">
          <mxGeometry x="669" y="30" width="80" height="80" as="geometry" />
        </mxCell>
        <mxCell id="yy2sZE4itZw_RQWSuxx_-9" value="NOT match&lt;br&gt;" style="text;html=1;strokeColor=none;fillColor=none;align=center;verticalAlign=middle;whiteSpace=wrap;rounded=0;" vertex="1" parent="1">
          <mxGeometry x="640" y="140" width="60" height="30" as="geometry" />
        </mxCell>
        <mxCell id="yy2sZE4itZw_RQWSuxx_-13" value="match" style="text;html=1;strokeColor=none;fillColor=none;align=center;verticalAlign=middle;whiteSpace=wrap;rounded=0;" vertex="1" parent="1">
          <mxGeometry x="760" y="30" width="60" height="30" as="geometry" />
        </mxCell>
        <mxCell id="yy2sZE4itZw_RQWSuxx_-18" value="" style="edgeStyle=orthogonalEdgeStyle;rounded=0;orthogonalLoop=1;jettySize=auto;html=1;" edge="1" parent="1" source="yy2sZE4itZw_RQWSuxx_-16" target="yy2sZE4itZw_RQWSuxx_-17">
          <mxGeometry relative="1" as="geometry" />
        </mxCell>
        <mxCell id="yy2sZE4itZw_RQWSuxx_-16" value="HIS medicine usage data" style="shape=hexagon;perimeter=hexagonPerimeter2;whiteSpace=wrap;html=1;fixedSize=1;" vertex="1" parent="1">
          <mxGeometry x="25" y="250" width="120" height="80" as="geometry" />
        </mxCell>
        <mxCell id="yy2sZE4itZw_RQWSuxx_-21" value="" style="edgeStyle=orthogonalEdgeStyle;rounded=0;orthogonalLoop=1;jettySize=auto;html=1;" edge="1" parent="1" source="yy2sZE4itZw_RQWSuxx_-17" target="yy2sZE4itZw_RQWSuxx_-20">
          <mxGeometry relative="1" as="geometry" />
        </mxCell>
        <mxCell id="yy2sZE4itZw_RQWSuxx_-23" value="" style="edgeStyle=orthogonalEdgeStyle;rounded=0;orthogonalLoop=1;jettySize=auto;html=1;" edge="1" parent="1" source="yy2sZE4itZw_RQWSuxx_-17" target="yy2sZE4itZw_RQWSuxx_-22">
          <mxGeometry relative="1" as="geometry" />
        </mxCell>
        <mxCell id="yy2sZE4itZw_RQWSuxx_-17" value="ESL publisher&lt;br&gt;" style="rounded=1;whiteSpace=wrap;html=1;" vertex="1" parent="1">
          <mxGeometry x="181" y="260" width="120" height="60" as="geometry" />
        </mxCell>
        <mxCell id="yy2sZE4itZw_RQWSuxx_-25" value="" style="edgeStyle=orthogonalEdgeStyle;rounded=0;orthogonalLoop=1;jettySize=auto;html=1;" edge="1" parent="1" source="yy2sZE4itZw_RQWSuxx_-20" target="yy2sZE4itZw_RQWSuxx_-24">
          <mxGeometry relative="1" as="geometry" />
        </mxCell>
        <mxCell id="yy2sZE4itZw_RQWSuxx_-20" value="ESL Subscriber" style="whiteSpace=wrap;html=1;rounded=1;" vertex="1" parent="1">
          <mxGeometry x="342" y="260" width="120" height="60" as="geometry" />
        </mxCell>
        <mxCell id="yy2sZE4itZw_RQWSuxx_-22" value="ROWA" style="whiteSpace=wrap;html=1;rounded=1;" vertex="1" parent="1">
          <mxGeometry x="181" y="400" width="120" height="60" as="geometry" />
        </mxCell>
        <mxCell id="yy2sZE4itZw_RQWSuxx_-24" value="Flashing Device / Antena" style="whiteSpace=wrap;html=1;rounded=1;" vertex="1" parent="1">
          <mxGeometry x="542" y="260" width="120" height="60" as="geometry" />
        </mxCell>
        <mxCell id="yy2sZE4itZw_RQWSuxx_-26" value="http" style="text;html=1;strokeColor=none;fillColor=none;align=center;verticalAlign=middle;whiteSpace=wrap;rounded=0;" vertex="1" parent="1">
          <mxGeometry x="470" y="260" width="60" height="30" as="geometry" />
        </mxCell>
        <mxCell id="yy2sZE4itZw_RQWSuxx_-27" value="&lt;span style=&quot;font-family: Verdana;&quot;&gt;Update to database&lt;/span&gt;" style="shape=cylinder3;whiteSpace=wrap;html=1;boundedLbl=1;backgroundOutline=1;size=15;" vertex="1" parent="1">
          <mxGeometry x="840" y="10" width="140" height="120" as="geometry" />
        </mxCell>
      </root>
    </mxGraphModel>
  </diagram>
</mxfile>
